<svg viewBox="0 0 43 43" fill="none" xmlns="http://www.w3.org/2000/svg">
    <path
        d="M15.354 25.6791C11.3974 25.6791 8.18994 28.8865 8.18994 32.8431H22.518C22.518 28.8865 19.3106 25.6791 15.354 25.6791Z"
        fill="currentColor" />
    <path
        d="M3.41357 40.0071H27.2937C26.8866 37.8306 26.2263 35.8147 25.364 34.0371H5.34332C4.48096 35.8147 3.82066 37.8306 3.41357 40.0071Z"
        fill="currentColor" />
    <path
        d="M7.28593 12.4735C8.75021 12.5176 10.0779 13.3444 10.7644 14.6386L15.3543 23.2909L14.9129 23.3544C12.5038 23.6985 10.3028 24.9091 8.72245 26.7597L8.116 27.4706L3.49979 18.7665C2.8238 17.492 2.83483 15.9628 3.52909 14.6981L3.58964 14.5868C4.32687 13.2441 5.75479 12.4275 7.28593 12.4735ZM6.99491 14.9325C6.33591 14.9327 5.80155 15.4678 5.80155 16.1268C5.80172 16.7858 6.33601 17.32 6.99491 17.3202C7.65398 17.3202 8.18907 16.7859 8.18925 16.1268C8.18925 15.4677 7.65409 14.9325 6.99491 14.9325Z"
        fill="currentColor" />
    <path
        d="M20.1886 3.6023C22.2398 2.37261 24.8852 3.06354 26.0968 5.14527C27.3081 7.22693 26.6274 9.91077 24.5763 11.1404C23.1754 11.9802 21.4977 11.9243 20.1886 11.1414L13.4435 16.3552C13.2184 16.529 12.8881 16.4115 12.8195 16.1355C12.3806 14.3689 11.3378 12.7981 9.87514 11.7146C9.64559 11.5446 9.66884 11.1941 9.91908 11.0564L18.1495 6.53101C18.3782 5.34733 19.0848 4.26408 20.1886 3.6023ZM22.5177 5.38062C21.1989 5.38062 20.13 6.45043 20.13 7.76929C20.1302 9.08799 21.199 10.157 22.5177 10.157C23.8364 10.157 24.9052 9.08798 24.9054 7.76929C24.9054 6.45044 23.8366 5.38063 22.5177 5.38062Z"
        fill="currentColor" />
    <path
        d="M32.0497 11.9478L28.2386 9.0714C28.0469 8.92674 27.7706 9.04481 27.7426 9.28331C27.6117 10.4 26.888 11.3589 25.85 11.791C25.6283 11.8833 25.5905 12.1814 25.7822 12.326L29.5934 15.2024C29.9101 15.4414 30.0555 15.8451 29.9641 16.2312L29.5806 17.8494C29.4891 18.2355 29.6346 18.6392 29.9513 18.8782L31.928 20.37C32.1576 20.5433 32.4507 20.6093 32.7324 20.5512L34.7509 20.1347C35.172 20.0478 35.2943 19.505 34.951 19.2459L32.3819 17.307C32.1523 17.1337 32.0084 16.8699 31.9871 16.583L31.9144 15.606C31.8964 15.3638 31.9671 15.1233 32.1134 14.9294L32.4782 14.4461C32.6245 14.2522 32.8364 14.1182 33.0743 14.0691L34.0338 13.8712C34.3155 13.813 34.6087 13.879 34.8383 14.0523L37.4074 15.9913C37.7506 16.2504 38.2391 15.984 38.2072 15.5551L38.0543 13.4998C38.0329 13.213 37.889 12.9492 37.6594 12.7759L35.6827 11.284C35.3661 11.045 34.938 11.0158 34.5918 11.2097L33.1407 12.0221C32.7945 12.216 32.3664 12.1868 32.0497 11.9478Z"
        fill="currentColor" />
</svg>