<svg viewBox="0 0 20 20" fill="none" xmlns="http://www.w3.org/2000/svg">
<path d="M15 3C15.7956 3 16.5587 3.31607 17.1213 3.87868C17.6839 4.44129 18 5.20435 18 6V13C18 13.7956 17.6839 14.5587 17.1213 15.1213C16.5587 15.6839 15.7956 16 15 16H5C4.20435 16 3.44129 15.6839 2.87868 15.1213C2.31607 14.5587 2 13.7956 2 13V6C2 5.20435 2.31607 4.44129 2.87868 3.87868C3.44129 3.31607 4.20435 3 5 3H15ZM5 4C4.46957 4 3.96086 4.21071 3.58579 4.58579C3.21071 4.96086 3 5.46957 3 6V13C3 13.5304 3.21071 14.0391 3.58579 14.4142C3.96086 14.7893 4.46957 15 5 15H11.5V4H5Z" fill="currentColor"/>
<path d="M8.90781 9.42318L6.16402 7.13668C6.09889 7.0824 6 7.12872 6 7.2135V11.7865C6 11.8713 6.09889 11.9176 6.16402 11.8633L8.90781 9.57682C8.95579 9.53684 8.95579 9.46316 8.90781 9.42318Z" fill="currentColor"/>
</svg>
