<svg viewBox="0 0 50 50" fill="none" xmlns="http://www.w3.org/2000/svg">
    <path
        d="M17.2353 6.76471V1.94118C17.2353 1.42138 17.6567 1 18.1765 1H31C31.5198 1 31.9412 1.42138 31.9412 1.94118V6.76471M17.2353 6.76471H16.5294C16.0096 6.76471 15.5882 7.18609 15.5882 7.70588V7.82353M17.2353 6.76471H31.9412M15.5882 7.82353H11.9412C11.4214 7.82353 11 8.24491 11 8.76471V22.1765C11 22.6963 11.4214 23.1176 11.9412 23.1176H15.5882M15.5882 7.82353V23.1176M15.5882 23.1176V23.2353C15.5882 23.7551 16.0096 24.1765 16.5294 24.1765H17.4706M17.4706 24.1765V25.4706C17.4706 25.9904 17.892 26.4118 18.4118 26.4118H20.4118M17.4706 24.1765H31.7059M20.4118 26.4118V28.5294M20.4118 26.4118H28.7647M20.4118 28.5294H20.0588C19.539 28.5294 19.1176 28.9508 19.1176 29.4706V30.7647M20.4118 28.5294H28.7647M19.1176 30.7647V32.6733C19.1176 32.8849 19.189 33.0903 19.3201 33.2565L20.5997 34.8773C20.7782 35.1034 21.0504 35.2353 21.3384 35.2353H22.4118M19.1176 30.7647H30.0588M17.4706 34.8824C11.8235 35.7059 10.2941 39.1176 19.8235 39.9412M19.8235 39.9412L18.1765 38.1765M19.8235 39.9412L17.7059 41.4706M31.9412 6.76471H32.6471C33.1669 6.76471 33.5882 7.18609 33.5882 7.70588V7.82353M33.5882 7.82353V23.1176M33.5882 7.82353H37.2353C37.7551 7.82353 38.1765 8.24491 38.1765 8.76471V22.1765C38.1765 22.6963 37.7551 23.1176 37.2353 23.1176H33.5882M33.5882 23.1176V23.2353C33.5882 23.7551 33.1669 24.1765 32.6471 24.1765H31.7059M31.7059 24.1765V25.4706C31.7059 25.9904 31.2845 26.4118 30.7647 26.4118H28.7647M28.7647 26.4118V28.5294M28.7647 28.5294H29.1176C29.6374 28.5294 30.0588 28.9508 30.0588 29.4706V30.7647M30.0588 30.7647V32.3221C30.0588 32.5486 29.9772 32.7675 29.8288 32.9386L28.1195 34.9106C27.9407 35.1168 27.6812 35.2353 27.4083 35.2353H26.5294M31.7059 34.8824C37.3529 35.7059 38.8824 39.1176 29.3529 39.9412M31.7059 34.8824L34.1765 33.7059M31.7059 34.8824L33.3529 37M30.0588 9.23529V21.3529M26.5294 35.2353V38.6471M26.5294 35.2353H22.4118M26.5294 38.6471V42.414C26.5294 42.6402 26.448 42.8588 26.2999 43.0299L25.6132 43.8235M26.5294 38.6471L23.2174 43M22.6609 47.2353L23.8644 48.372C24.2347 48.7217 24.816 48.7134 25.1762 48.3532L26.2537 47.2757C26.4303 47.0992 26.5294 46.8598 26.5294 46.6102V45.233C26.5294 45.0068 26.448 44.7882 26.2999 44.6172L25.6132 43.8235M22.6609 47.2353L25.6132 43.8235M22.6609 47.2353C22.5019 47.0851 22.4118 46.876 22.4118 46.6573V44.3762C22.4118 44.1703 22.4793 43.9701 22.6039 43.8063L23.2174 43M22.4118 35.2353V39.5882M22.4118 39.5882L24.2941 37.3529M22.4118 39.5882V41.6238C22.4118 41.8297 22.4793 42.0299 22.6039 42.1937L23.2174 43M36.1765 20.6471V20.8824C36.1765 21.1423 35.9658 21.3529 35.7059 21.3529C35.446 21.3529 35.2353 21.1423 35.2353 20.8824V20.6471C35.2353 20.3872 35.446 20.1765 35.7059 20.1765C35.9658 20.1765 36.1765 20.3872 36.1765 20.6471ZM13.5882 10.0588V10.2941C13.5882 10.554 13.3775 10.7647 13.1176 10.7647C12.8577 10.7647 12.6471 10.554 12.6471 10.2941V10.0588C12.6471 9.79892 12.8577 9.58824 13.1176 9.58824C13.3775 9.58824 13.5882 9.79892 13.5882 10.0588ZM13.5882 20.6471V20.8824C13.5882 21.1423 13.3775 21.3529 13.1176 21.3529C12.8577 21.3529 12.6471 21.1423 12.6471 20.8824V20.6471C12.6471 20.3872 12.8577 20.1765 13.1176 20.1765C13.3775 20.1765 13.5882 20.3872 13.5882 20.6471ZM35.7059 10.7647C35.446 10.7647 35.2353 10.554 35.2353 10.2941V10.0588C35.2353 9.79893 35.446 9.58824 35.7059 9.58824C35.9658 9.58824 36.1765 9.79892 36.1765 10.0588V10.2941C36.1765 10.554 35.9658 10.7647 35.7059 10.7647Z"
        stroke="currentColor" stroke-width="0.941176" stroke-linecap="round" />
</svg>