<svg viewBox="0 0 50 50" fill="none" xmlns="http://www.w3.org/2000/svg">
    <path
        d="M36.7089 13.0068H37.2044V12.6961L36.9248 12.5607L36.7089 13.0068ZM36.7089 14.9898L36.9047 15.445L37.2044 15.3161V14.9898H36.7089ZM22.2183 26.7559L22.1616 27.2482C22.3523 27.2702 22.5386 27.18 22.6397 27.0167C22.7408 26.8534 22.7384 26.6465 22.6336 26.4855L22.2183 26.7559ZM17.8487 9.17288L18.3377 9.25332L17.8487 9.17288ZM14.7143 14.1089C14.988 14.1089 15.2098 13.8871 15.2098 13.6134C15.2098 13.3397 14.988 13.1178 14.7143 13.1178V13.6134V14.1089ZM16.1947 15.9814L15.7154 15.8557V15.8557L16.1947 15.9814ZM18.4986 15.9814L18.9916 15.9302V15.9302L18.4986 15.9814ZM7.21024 37.2522L7.34111 36.7743H7.34111L7.21024 37.2522ZM10.5048 9.43729L10.9841 9.56299V9.56299L10.5048 9.43729ZM38.0834 11.9571C37.8687 12.1269 37.8324 12.4386 38.0022 12.6532C38.172 12.8679 38.4836 12.9042 38.6983 12.7344L38.3908 12.3458L38.0834 11.9571ZM46.7199 6.38865C46.9345 6.21885 46.9709 5.90719 46.8011 5.69254C46.6312 5.4779 46.3196 5.44155 46.1049 5.61135L46.4124 6L46.7199 6.38865ZM38.6153 12.539C38.357 12.6294 38.2208 12.9121 38.3112 13.1705C38.4016 13.4288 38.6843 13.5649 38.9427 13.4745L38.779 13.0068L38.6153 12.539ZM48.3874 10.1694C48.6457 10.079 48.7819 9.79634 48.6915 9.53801C48.6011 9.27968 48.3184 9.14355 48.06 9.23395L48.2237 9.70169L48.3874 10.1694ZM38.7854 13.3045C38.5117 13.3009 38.287 13.5199 38.2835 13.7936C38.2799 14.0673 38.4989 14.292 38.7726 14.2955L38.779 13.8L38.7854 13.3045ZM48.9936 14.4277C49.2673 14.4313 49.492 14.2123 49.4955 13.9386C49.4991 13.6649 49.2801 13.4402 49.0064 13.4367L49 13.9322L48.9936 14.4277ZM38.817 14.259C38.5595 14.1665 38.2757 14.3004 38.1832 14.558C38.0907 14.8156 38.2246 15.0994 38.4821 15.1918L38.6496 14.7254L38.817 14.259ZM48.0563 18.6291C48.3139 18.7216 48.5977 18.5878 48.6901 18.3302C48.7826 18.0726 48.6488 17.7888 48.3912 17.6963L48.2237 18.1627L48.0563 18.6291ZM38.5659 15.1276C38.3499 14.9595 38.0386 14.9983 37.8704 15.2142C37.7023 15.4302 37.7411 15.7415 37.957 15.9097L38.2615 15.5186L38.5659 15.1276ZM46.108 22.2554C46.3239 22.4236 46.6353 22.3848 46.8034 22.1688C46.9716 21.9529 46.9328 21.6415 46.7168 21.4734L46.4124 21.8644L46.108 22.2554ZM44.3423 22.6576L44.7886 22.4422L44.3452 21.5236L43.8971 22.4399L44.3423 22.6576ZM44.6791 19.8869C44.4631 19.7188 44.1518 19.7576 43.9836 19.9735C43.8155 20.1895 43.8543 20.5009 44.0702 20.669L44.3747 20.278L44.6791 19.8869ZM39.9948 17.4961C40.2107 17.6642 40.5221 17.6255 40.6902 17.4095C40.8583 17.1936 40.8196 16.8822 40.6036 16.7141L40.2992 17.1051L39.9948 17.4961ZM41.6225 17.5073C41.4065 17.3391 41.0952 17.3779 40.927 17.5939C40.7589 17.8098 40.7977 18.1212 41.0136 18.2893L41.3181 17.8983L41.6225 17.5073ZM43.0514 19.8758C43.2673 20.0439 43.5787 20.0051 43.7468 19.7892C43.915 19.5732 43.8762 19.2618 43.6602 19.0937L43.3558 19.4847L43.0514 19.8758ZM46.2074 21.0768C45.9914 20.9086 45.6801 20.9474 45.5119 21.1634C45.3438 21.3793 45.3826 21.6907 45.5985 21.8588L45.903 21.4678L46.2074 21.0768ZM43.1508 18.6971C42.9348 18.529 42.6235 18.5678 42.4553 18.7837C42.2872 18.9997 42.326 19.311 42.5419 19.4792L42.8464 19.0881L43.1508 18.6971ZM41.5231 18.6859C41.739 18.8541 42.0504 18.8153 42.2185 18.5993C42.3867 18.3834 42.3479 18.072 42.1319 17.9039L41.8275 18.2949L41.5231 18.6859ZM40.0942 16.3174C39.8782 16.1493 39.5669 16.1881 39.3987 16.404C39.2306 16.62 39.2694 16.9314 39.4853 17.0995L39.7898 16.7085L40.0942 16.3174ZM38.4665 16.3063C38.6824 16.4744 38.9938 16.4356 39.1619 16.2197C39.33 16.0037 39.2913 15.6924 39.0753 15.5242L38.7709 15.9153L38.4665 16.3063ZM44.5797 21.0656C44.7956 21.2337 45.107 21.195 45.2751 20.979C45.4433 20.763 45.4045 20.4517 45.1885 20.2835L44.8841 20.6746L44.5797 21.0656ZM45.9976 16.837C45.74 16.7445 45.4563 16.8783 45.3638 17.1359C45.2713 17.3935 45.4052 17.6773 45.6627 17.7698L45.8302 17.3034L45.9976 16.837ZM44.466 17.3401C44.7236 17.4326 45.0074 17.2988 45.0998 17.0412C45.1923 16.7836 45.0585 16.4998 44.8009 16.4073L44.6334 16.8737L44.466 17.3401ZM44.2025 16.1925C43.9449 16.1 43.6611 16.2339 43.5686 16.4915C43.4762 16.749 43.61 17.0328 43.8676 17.1253L44.035 16.6589L44.2025 16.1925ZM46.2611 17.9846C46.5187 18.0771 46.8025 17.9433 46.895 17.6857C46.9875 17.4281 46.8536 17.1443 46.596 17.0518L46.4286 17.5182L46.2611 17.9846ZM47.7928 17.4815C47.5352 17.389 47.2514 17.5228 47.1589 17.7804C47.0664 18.038 47.2003 18.3218 47.4579 18.4143L47.6253 17.9479L47.7928 17.4815ZM40.8757 16.0512C41.1333 16.1436 41.4171 16.0098 41.5095 15.7522C41.602 15.4946 41.4682 15.2108 41.2106 15.1183L41.0431 15.5847L40.8757 16.0512ZM40.6122 14.9035C40.3546 14.811 40.0708 14.9449 39.9783 15.2025C39.8859 15.4601 40.0197 15.7438 40.2773 15.8363L40.4447 15.3699L40.6122 14.9035ZM42.4073 15.548C42.1498 15.4555 41.866 15.5894 41.7735 15.847C41.681 16.1045 41.8149 16.3883 42.0724 16.4808L42.2399 16.0144L42.4073 15.548ZM42.6708 16.6956C42.9284 16.7881 43.2122 16.6543 43.3047 16.3967C43.3972 16.1391 43.2633 15.8553 43.0057 15.7628L42.8383 16.2292L42.6708 16.6956ZM39.0805 15.4067C39.3381 15.4991 39.6219 15.3653 39.7144 15.1077C39.8069 14.8501 39.673 14.5663 39.4154 14.4738L39.248 14.9403L39.0805 15.4067ZM46.4512 13.4036C46.1775 13.4001 45.9528 13.6191 45.9492 13.8927C45.9457 14.1664 46.1647 14.3911 46.4383 14.3947L46.4447 13.8992L46.4512 13.4036ZM41.3278 14.3286C41.6015 14.3321 41.8262 14.1131 41.8298 13.8395C41.8333 13.5658 41.6143 13.3411 41.3406 13.3375L41.3342 13.8331L41.3278 14.3286ZM45.1607 14.3781C45.4344 14.3817 45.6591 14.1627 45.6626 13.889C45.6662 13.6154 45.4472 13.3907 45.1735 13.3871L45.1671 13.8826L45.1607 14.3781ZM42.6183 13.3541C42.3446 13.3505 42.1199 13.5695 42.1163 13.8432C42.1128 14.1168 42.3318 14.3416 42.6055 14.3451L42.6119 13.8496L42.6183 13.3541ZM40.7018 13.3293C40.4282 13.3257 40.2034 13.5447 40.1999 13.8184C40.1964 14.092 40.4153 14.3168 40.689 14.3203L40.6954 13.8248L40.7018 13.3293ZM43.2443 14.3534C43.5179 14.3569 43.7427 14.1379 43.7462 13.8643C43.7497 13.5906 43.5308 13.3659 43.2571 13.3623L43.2507 13.8578L43.2443 14.3534ZM44.5347 13.3788C44.261 13.3753 44.0363 13.5943 44.0328 13.868C44.0292 14.1416 44.2482 14.3663 44.5219 14.3699L44.5283 13.8744L44.5347 13.3788ZM47.0772 14.4029C47.3508 14.4065 47.5755 14.1875 47.5791 13.9138C47.5826 13.6402 47.3636 13.4154 47.09 13.4119L47.0836 13.9074L47.0772 14.4029ZM48.3676 13.4284C48.0939 13.4249 47.8692 13.6439 47.8657 13.9175C47.8621 14.1912 48.0811 14.4159 48.3548 14.4195L48.3612 13.9239L48.3676 13.4284ZM41.3038 12.6483C41.5622 12.5579 41.6983 12.2752 41.6079 12.0168C41.5175 11.7585 41.2348 11.6224 40.9765 11.7128L41.1402 12.1805L41.3038 12.6483ZM39.533 13.268C39.7913 13.1776 39.9274 12.8949 39.837 12.6365C39.7466 12.3782 39.4639 12.2421 39.2056 12.3325L39.3693 12.8002L39.533 13.268ZM40.3862 11.9193C40.1279 12.0097 39.9917 12.2924 40.0821 12.5508C40.1725 12.8091 40.4552 12.9452 40.7135 12.8548L40.5499 12.3871L40.3862 11.9193ZM42.1571 11.2996C41.8987 11.39 41.7626 11.6727 41.853 11.9311C41.9434 12.1894 42.2261 12.3255 42.4844 12.2351L42.3208 11.7674L42.1571 11.2996ZM43.0747 12.0286C43.3331 11.9382 43.4692 11.6555 43.3788 11.3971C43.2884 11.1388 43.0057 11.0027 42.7474 11.0931L42.9111 11.5608L43.0747 12.0286ZM45.6989 10.0602C45.4405 10.1506 45.3044 10.4333 45.3948 10.6916C45.4852 10.95 45.7679 11.0861 46.0262 10.9957L45.8625 10.528L45.6989 10.0602ZM44.8456 11.4088C45.104 11.3184 45.2401 11.0357 45.1497 10.7774C45.0593 10.5191 44.7766 10.383 44.5183 10.4734L44.6819 10.9411L44.8456 11.4088ZM43.928 10.6799C43.6696 10.7703 43.5335 11.053 43.6239 11.3114C43.7143 11.5697 43.997 11.7058 44.2553 11.6154L44.0916 11.1477L43.928 10.6799ZM46.6165 10.7891C46.8748 10.6987 47.011 10.416 46.9206 10.1577C46.8302 9.89939 46.5475 9.76325 46.2892 9.85365L46.4528 10.3214L46.6165 10.7891ZM47.4697 9.44052C47.2114 9.53092 47.0753 9.81361 47.1657 10.0719C47.2561 10.3303 47.5388 10.4664 47.7971 10.376L47.6334 9.90826L47.4697 9.44052ZM40.7037 11.148C40.9183 10.9782 40.9547 10.6665 40.7849 10.4519C40.6151 10.2372 40.3034 10.2009 40.0888 10.3707L40.3962 10.7593L40.7037 11.148ZM41.0915 9.57745C40.8768 9.74726 40.8405 10.0589 41.0103 10.2736C41.1801 10.4882 41.4917 10.5246 41.7064 10.3548L41.3989 9.9661L41.0915 9.57745ZM39.5874 10.7673C39.3728 10.9371 39.3364 11.2487 39.5062 11.4634C39.676 11.678 39.9877 11.7144 40.2023 11.5446L39.8949 11.1559L39.5874 10.7673ZM39.1996 12.3378C39.4143 12.168 39.4506 11.8563 39.2808 11.6417C39.111 11.4271 38.7994 11.3907 38.5847 11.5605L38.8922 11.9492L39.1996 12.3378ZM42.2077 9.95814C42.4224 9.78834 42.4587 9.47668 42.2889 9.26203C42.1191 9.04739 41.8075 9.01104 41.5928 9.18084L41.9003 9.56949L42.2077 9.95814ZM44.0996 7.19779C43.8849 7.36759 43.8486 7.67925 44.0184 7.8939C44.1882 8.10854 44.4998 8.14489 44.7145 7.97509L44.407 7.58644L44.0996 7.19779ZM45.2158 7.57848C45.4305 7.40868 45.4668 7.09702 45.297 6.88237C45.1272 6.66773 44.8155 6.63138 44.6009 6.80118L44.9084 7.18983L45.2158 7.57848ZM45.6036 6.00796C45.389 6.17776 45.3526 6.48942 45.5224 6.70407C45.6922 6.91871 46.0039 6.95506 46.2185 6.78526L45.9111 6.39661L45.6036 6.00796ZM43.7118 8.76831C43.9264 8.59851 43.9628 8.28685 43.793 8.07221C43.6232 7.85756 43.3115 7.82121 43.0969 7.99101L43.4043 8.37966L43.7118 8.76831ZM42.5955 8.38762C42.3809 8.55742 42.3445 8.86908 42.5143 9.08373C42.6841 9.29837 42.9958 9.33472 43.2104 9.16492L42.903 8.77627L42.5955 8.38762ZM39.4114 14.3038C39.6851 14.3073 39.9098 14.0883 39.9133 13.8147C39.9168 13.541 39.6979 13.3163 39.4242 13.3127L39.4178 13.8083L39.4114 14.3038ZM44.0184 26.5224L44.1972 26.0602L44.0184 26.5224ZM44.6704 26.5369L44.829 27.0064L44.6704 26.5369ZM6.48973 39.4246L6.96009 39.5806L6.48973 39.4246ZM5.22945 40.0507L5.38923 39.5817L5.22945 40.0507ZM9.36694 37.7079L8.87189 37.7302L9.36694 37.7079ZM14.1949 26.4481L14.4467 26.0213L14.1949 26.4481ZM17.1739 28.7693L17.6532 28.895L17.1739 28.7693ZM16.8671 28.0245L16.6153 28.4514L16.8671 28.0245ZM13.3391 29.9763L12.8641 29.835L13.3391 29.9763ZM8.3489 36.2946L8.78035 36.5384L8.3489 36.2946ZM7.43206 20.1296L7.34311 20.6171V20.6171L7.43206 20.1296ZM24.3938 28.8957L24.7479 29.2423L24.3938 28.8957ZM34.7922 28.8957L34.438 29.2423L34.7922 28.8957ZM11.8449 37.53L12.336 37.4634L11.8449 37.53ZM7.99172 36.9268L7.56026 36.683L7.99172 36.9268ZM21.5174 18.3549L21.9948 18.4879L21.5174 18.3549ZM21.5481 17.9661L22.0402 17.9077L21.5481 17.9661ZM5.33235 19.7465L5.2434 20.234L5.33235 19.7465ZM28.4703 10.8756L28.5587 10.388L28.4703 10.8756ZM36.6849 30.8297L37.039 30.4831L36.6849 30.8297ZM16.5728 14.5397L16.0934 14.414L16.5728 14.5397ZM17.8256 9.35581L18.3191 9.40051L17.8256 9.35581ZM17.8278 9.51856L18.3207 9.4674L17.8278 9.51856ZM22.5011 30.8297L22.1469 30.4831L22.5011 30.8297ZM18.7195 18.2479L19.214 18.2799L18.7195 18.2479ZM18.7164 18.0792L19.2093 18.028L18.7164 18.0792ZM4.67784 36.262L4.19849 36.1363L4.67784 36.262ZM8.21286 22.7812L7.73351 22.6555L8.21286 22.7812ZM28.6471 10.8915V11.3871H31.1455V10.8915V10.396H28.6471V10.8915ZM31.9388 10.0983V10.5939H33.2595V10.0983V9.60275H31.9388V10.0983ZM33.2595 17.7661V17.2705H31.1455V17.7661V18.2617H33.2595V17.7661ZM34.2507 11.0894H33.7551V11.817H34.2507H34.7462V11.0894H34.2507ZM34.2507 11.817L34.0348 12.263L36.493 13.4528L36.7089 13.0068L36.9248 12.5607L34.4666 11.3709L34.2507 11.817ZM36.7089 13.0068H36.2133V14.9898H36.7089H37.2044V13.0068H36.7089ZM34.2507 11.817H33.7551V16.0475H34.2507H34.7462V11.817H34.2507ZM34.2507 16.0475H33.7551V16.775H34.2507H34.7462V16.0475H34.2507ZM36.7089 14.9898L36.513 14.5346L34.0548 15.5922L34.2507 16.0475L34.4465 16.5027L36.9047 15.445L36.7089 14.9898ZM28.4703 10.8756L28.5587 10.388L20.6248 8.94968L20.5364 9.43729L20.448 9.9249L28.3819 11.3632L28.4703 10.8756ZM21.5174 18.3549L21.04 18.222C20.4954 20.1772 20.2255 21.6915 20.3298 23.068C20.4354 24.4619 20.9206 25.6711 21.803 27.0263L22.2183 26.7559L22.6336 26.4855C21.8135 25.226 21.4076 24.1756 21.3181 22.9932C21.2272 21.7933 21.4581 20.4145 21.9948 18.4879L21.5174 18.3549ZM22.2183 26.7559L22.2751 26.2636C21.4833 26.1724 20.9074 25.977 20.4811 25.682C20.0622 25.3921 19.7507 24.9806 19.5292 24.3872C19.0701 23.1576 19.023 21.2327 19.214 18.2799L18.7195 18.2479L18.225 18.2159C18.0357 21.1404 18.0562 23.2757 18.6006 24.7339C18.8808 25.4843 19.3052 26.0736 19.9171 26.497C20.5216 26.9153 21.2715 27.1457 22.1616 27.2482L22.2183 26.7559ZM20.5364 9.43729L20.0443 9.49566L20.5618 13.8584L21.0539 13.8L21.546 13.7416L21.0285 9.37891L20.5364 9.43729ZM21.0539 13.8V14.2956H23.0385V13.8V13.3044H21.0539V13.8ZM31.1455 17.7661H31.6411V17.2373H31.1455H30.65V17.7661H31.1455ZM31.1455 17.2373H31.6411V10.8915H31.1455H30.65V17.2373H31.1455ZM21.0539 13.8L20.5618 13.8584L20.8205 16.0397L21.3127 15.9814L21.8048 15.923L21.546 13.7416L21.0539 13.8ZM21.3127 15.9814L20.8205 16.0397L21.056 18.0245L21.5481 17.9661L22.0402 17.9077L21.8048 15.923L21.3127 15.9814ZM24.0296 14.7911H23.5341V15.9814H24.0296H24.5252V14.7911H24.0296ZM24.0296 15.9814H23.5341V16.2462H24.0296H24.5252V15.9814H24.0296ZM21.3127 15.9814V16.4769H24.0296V15.9814V15.4858H21.3127V15.9814ZM31.1455 17.7661H30.65V20.1458H31.1455H31.6411V17.7661H31.1455ZM31.1455 20.1458V19.6502H28.5579V20.1458V20.6413H31.1455V20.1458ZM25.0208 17.2373V17.7328H28.5579V17.2373V16.7417H25.0208V17.2373ZM28.5579 17.2373V17.7328H31.1455V17.2373V16.7417H28.5579V17.2373ZM28.5579 20.1458H29.0535V17.2373H28.5579H28.0624V20.1458H28.5579ZM28.1698 20.5339H27.6742V23.8475H28.1698H28.6654V20.5339H28.1698ZM28.1698 23.8475V24.343H31.4043V23.8475V23.3519H28.1698V23.8475ZM31.4043 23.8475H31.8999V20.4045H31.4043H30.9087V23.8475H31.4043ZM31.4043 23.8475V24.343H34.2946V23.8475V23.3519H31.4043V23.8475ZM35.2857 24.8386H34.7901V25.9797H35.2857H35.7813V24.8386H35.2857ZM24.0296 26.109H24.5252V24.8386H24.0296H23.5341V26.109H24.0296ZM25.0208 23.8475V24.343H28.1698V23.8475V23.3519H25.0208V23.8475ZM34.5094 26.7559H34.0139V28.2025H34.5094H35.005V26.7559H34.5094ZM34.7922 28.8957L34.438 29.2423L36.3307 31.1763L36.6849 30.8297L37.039 30.4831L35.1464 28.5491L34.7922 28.8957ZM36.9676 31.5229H36.4721V44.0089H36.9676H37.4632V31.5229H36.9676ZM35.9765 45V44.5044H23.2094V45V45.4956H35.9765V45ZM22.2183 44.0089H22.7139V31.5229H22.2183H21.7228V44.0089H22.2183ZM22.5011 30.8297L22.8553 31.1763L24.7479 29.2423L24.3938 28.8957L24.0396 28.5491L22.1469 30.4831L22.5011 30.8297ZM34.5094 26.7559V26.2604H24.6765V26.7559V27.2515H34.5094V26.7559ZM24.6765 28.2025H25.1721V26.7559H24.6765H24.181V28.2025H24.6765ZM20.5364 9.43729L21.0272 9.36867C20.8759 8.28649 20.1228 7.56811 19.2718 7.46522C18.8471 7.41388 18.4077 7.5208 18.0494 7.80984C17.6908 8.09905 17.4507 8.53965 17.3597 9.09244L17.8487 9.17288L18.3377 9.25332C18.3968 8.8938 18.5367 8.69008 18.6716 8.58127C18.8067 8.47232 18.974 8.42755 19.1528 8.44917C19.5088 8.49221 19.9495 8.81835 20.0456 9.5059L20.5364 9.43729ZM17.8487 9.17288L17.3597 9.09244C17.348 9.16346 17.3388 9.23636 17.332 9.31111L17.8256 9.35581L18.3191 9.40051C18.3238 9.34883 18.3301 9.29979 18.3377 9.25332L17.8487 9.17288ZM17.8487 9.17288V8.67732H10.8475V9.17288V9.66844H17.8487V9.17288ZM9.40969 13.6134V14.1089H14.7143V13.6134V13.1178H9.40969V13.6134ZM9.40969 13.6134V13.1178H7.14655V13.6134V14.1089H9.40969V13.6134ZM5.59298 18.0305V17.535H5.48763V18.0305V18.5261H5.59298V18.0305ZM5.33235 19.7465L5.2434 20.234L7.34311 20.6171L7.43206 20.1296L7.52102 19.6421L5.42131 19.2589L5.33235 19.7465ZM8.24527 21.1046H7.74971V22.5298H8.24527H8.74083V21.1046H8.24527ZM8.21286 22.7812L7.73351 22.6555L4.19849 36.1363L4.67784 36.262L5.15719 36.3877L8.69221 22.9069L8.21286 22.7812ZM7.99172 36.9268L8.42317 37.1705L8.78035 36.5384L8.3489 36.2946L7.91745 36.0508L7.56026 36.683L7.99172 36.9268ZM11.6092 35.791L12.0841 35.9324L13.8141 30.1176L13.3391 29.9763L12.8641 29.835L11.1342 35.6497L11.6092 35.791ZM14.2891 29.2678V29.7634H16.5277V29.2678V28.7722H14.2891V29.2678ZM16.8671 28.0245L17.1189 27.5977L14.4467 26.0213L14.1949 26.4481L13.9431 26.8749L16.6153 28.4514L16.8671 28.0245ZM18.2722 13.8L18.7651 13.7488L18.3207 9.4674L17.8278 9.51856L17.3349 9.56972L17.7793 13.8512L18.2722 13.8ZM17.5315 13.8V14.2956H18.2722V13.8V13.3044H17.5315V13.8ZM16.1947 15.9814L16.6741 16.1071L17.0521 14.6654L16.5728 14.5397L16.0934 14.414L15.7154 15.8557L16.1947 15.9814ZM18.4986 15.9814L18.9916 15.9302L18.7651 13.7488L18.2722 13.8L17.7793 13.8512L18.0057 16.0325L18.4986 15.9814ZM16.1947 15.9814V16.4769H18.4986V15.9814V15.4858H16.1947V15.9814ZM18.7164 18.0792L19.2093 18.028L19.1905 17.8471L18.6976 17.8983L18.2047 17.9495L18.2235 18.1303L18.7164 18.0792ZM18.6976 17.8983L19.1905 17.8471L18.9916 15.9302L18.4986 15.9814L18.0057 16.0325L18.2047 17.9495L18.6976 17.8983ZM13.7398 25.343L14.2192 25.4687L16.1714 18.024L15.6921 17.8983L15.2127 17.7726L13.2605 25.2173L13.7398 25.343ZM15.6921 17.8983L16.1714 18.024L16.6741 16.1071L16.1947 15.9814L15.7154 15.8557L15.2127 17.7726L15.6921 17.8983ZM18.6976 17.8983V17.4027H15.6921V17.8983V18.3939H18.6976V17.8983ZM11.6092 35.791L11.1181 35.8576L11.3538 37.5965L11.8449 37.53L12.336 37.4634L12.1002 35.7245L11.6092 35.791ZM10.8628 38.6542V38.1587H10.357V38.6542V39.1498H10.8628V38.6542ZM9.2118 35.791V36.2866H9.28032V35.791V35.2955H9.2118V35.791ZM9.28032 35.791V36.2866H11.6092V35.791V35.2955H9.28032V35.791ZM9.36694 37.7079L9.86199 37.6855L9.77538 35.7687L9.28032 35.791L8.78527 35.8134L8.87189 37.7302L9.36694 37.7079ZM7.21024 37.2522L6.73988 37.0962L6.01937 39.2686L6.48973 39.4246L6.96009 39.5806L7.6806 37.4082L7.21024 37.2522ZM5.22945 40.0507L5.38923 39.5817L4.95146 39.4325L4.79168 39.9016L4.6319 40.3707L5.06968 40.5198L5.22945 40.0507ZM4.8814 36.6146L4.75054 37.0926L7.07938 37.7302L7.21024 37.2522L7.34111 36.7743L5.01227 36.1366L4.8814 36.6146ZM4.17549 38.6368L4.64336 38.8001L5.34927 36.7779L4.8814 36.6146L4.41353 36.4513L3.70762 38.4735L4.17549 38.6368ZM9.9919 11.3931L9.51255 11.2674L8.93034 13.4877L9.40969 13.6134L9.88904 13.7391L10.4713 11.5188L9.9919 11.3931ZM9.9919 11.3931V10.8976H8.50404V11.3931V11.8887H9.9919V11.3931ZM8.50404 11.3931H8.9996V9.43729H8.50404H8.00849V11.3931H8.50404ZM10.5048 9.43729L10.0254 9.31159L9.51255 11.2674L9.9919 11.3931L10.4713 11.5188L10.9841 9.56299L10.5048 9.43729ZM8.50404 9.43729V9.93285H10.5048V9.43729V8.94173H8.50404V9.43729ZM7.84303 8.77627V8.28071H7.03694V8.77627V9.27183H7.84303V8.77627ZM6.04582 9.76739H5.55026V10.6936H6.04582H6.54138V9.76739H6.04582ZM7.03694 11.6847V12.1803H8.21243V11.6847V11.1892H7.03694V11.6847ZM6.56333 14.1966V13.7011H3.32884V14.1966V14.6922H6.56333V14.1966ZM3.32884 14.1966H2.83328V16.4441H3.32884H3.8244V14.1966H3.32884ZM6.56333 14.1966H6.06777V16.4441H6.56333H7.05889V14.1966H6.56333ZM6.56333 16.4441H6.06777V17.0602H6.56333H7.05889V16.4441H6.56333ZM3.32884 16.4441V16.9396H6.56333V16.4441V15.9485H3.32884V16.4441ZM3.32884 16.4441H2.83328V16.775H3.32884H3.8244V16.4441H3.32884ZM2.33772 17.7661V17.2705H1.99112V17.7661V18.2617H2.33772V17.7661ZM1 16.775H1.49556V14.2623H1H0.504442V16.775H1ZM1.99112 13.2712V13.7667H2.40342V13.2712V12.7756H1.99112V13.2712ZM44.3423 22.6576L43.8971 22.4399C43.4029 23.4508 42.9445 24.3624 42.8077 25.0857C42.7365 25.4621 42.7367 25.8567 42.9166 26.2152C43.1005 26.5818 43.4291 26.8258 43.8395 26.9846L44.0184 26.5224L44.1972 26.0602C43.9368 25.9595 43.8429 25.8514 43.8024 25.7707C43.7579 25.682 43.7316 25.5341 43.7816 25.27C43.8871 24.7123 44.2615 23.9511 44.7875 22.8753L44.3423 22.6576ZM44.6704 26.5369L44.829 27.0064C45.2483 26.8647 45.5899 26.631 45.7807 26.2612C45.9662 25.9018 45.9628 25.502 45.8899 25.125C45.8168 24.747 45.6618 24.3316 45.4723 23.8958C45.2817 23.4574 45.0421 22.9673 44.7886 22.4422L44.3423 22.6576L43.896 22.8731C44.1544 23.4082 44.3827 23.8754 44.5634 24.2909C44.7452 24.7091 44.8648 25.0443 44.9168 25.3132C44.969 25.5833 44.9412 25.7268 44.8999 25.8067C44.8641 25.8763 44.7766 25.9779 44.5119 26.0674L44.6704 26.5369ZM45.903 21.4678L45.5985 21.8588L46.108 22.2554L46.4124 21.8644L46.7168 21.4734L46.2074 21.0768L45.903 21.4678ZM42.8464 19.0881L42.5419 19.4792L43.0514 19.8758L43.3558 19.4847L43.6602 19.0937L43.1508 18.6971L42.8464 19.0881ZM41.3181 17.8983L41.0136 18.2893L41.5231 18.6859L41.8275 18.2949L42.1319 17.9039L41.6225 17.5073L41.3181 17.8983ZM39.7898 16.7085L39.4853 17.0995L39.9948 17.4961L40.2992 17.1051L40.6036 16.7141L40.0942 16.3174L39.7898 16.7085ZM38.2615 15.5186L37.957 15.9097L38.4665 16.3063L38.7709 15.9153L39.0753 15.5242L38.5659 15.1276L38.2615 15.5186ZM44.3747 20.278L44.0702 20.669L44.5797 21.0656L44.8841 20.6746L45.1885 20.2835L44.6791 19.8869L44.3747 20.278ZM44.035 16.6589L43.8676 17.1253L44.466 17.3401L44.6334 16.8737L44.8009 16.4073L44.2025 16.1925L44.035 16.6589ZM45.8302 17.3034L45.6627 17.7698L46.2611 17.9846L46.4286 17.5182L46.596 17.0518L45.9976 16.837L45.8302 17.3034ZM47.6253 17.9479L47.4579 18.4143L48.0563 18.6291L48.2237 18.1627L48.3912 17.6963L47.7928 17.4815L47.6253 17.9479ZM40.4447 15.3699L40.2773 15.8363L40.8757 16.0512L41.0431 15.5847L41.2106 15.1183L40.6122 14.9035L40.4447 15.3699ZM42.2399 16.0144L42.0724 16.4808L42.6708 16.6956L42.8383 16.2292L43.0057 15.7628L42.4073 15.548L42.2399 16.0144ZM38.6496 14.7254L38.4821 15.1918L39.0805 15.4067L39.248 14.9403L39.4154 14.4738L38.817 14.259L38.6496 14.7254ZM40.6954 13.8248L40.689 14.3203L41.3278 14.3286L41.3342 13.8331L41.3406 13.3375L40.7018 13.3293L40.6954 13.8248ZM42.6119 13.8496L42.6055 14.3451L43.2443 14.3534L43.2507 13.8578L43.2571 13.3623L42.6183 13.3541L42.6119 13.8496ZM44.5283 13.8744L44.5219 14.3699L45.1607 14.3781L45.1671 13.8826L45.1735 13.3871L44.5347 13.3788L44.5283 13.8744ZM46.4447 13.8992L46.4383 14.3947L47.0772 14.4029L47.0836 13.9074L47.09 13.4119L46.4512 13.4036L46.4447 13.8992ZM48.3612 13.9239L48.3548 14.4195L48.9936 14.4277L49 13.9322L49.0064 13.4367L48.3676 13.4284L48.3612 13.9239ZM38.779 13.0068L38.9427 13.4745L39.533 13.268L39.3693 12.8002L39.2056 12.3325L38.6153 12.539L38.779 13.0068ZM40.5499 12.3871L40.7135 12.8548L41.3038 12.6483L41.1402 12.1805L40.9765 11.7128L40.3862 11.9193L40.5499 12.3871ZM42.3208 11.7674L42.4844 12.2351L43.0747 12.0286L42.9111 11.5608L42.7474 11.0931L42.1571 11.2996L42.3208 11.7674ZM44.0916 11.1477L44.2553 11.6154L44.8456 11.4088L44.6819 10.9411L44.5183 10.4734L43.928 10.6799L44.0916 11.1477ZM45.8625 10.528L46.0262 10.9957L46.6165 10.7891L46.4528 10.3214L46.2892 9.85365L45.6989 10.0602L45.8625 10.528ZM47.6334 9.90826L47.7971 10.376L48.3874 10.1694L48.2237 9.70169L48.06 9.23395L47.4697 9.44052L47.6334 9.90826ZM39.8949 11.1559L40.2023 11.5446L40.7037 11.148L40.3962 10.7593L40.0888 10.3707L39.5874 10.7673L39.8949 11.1559ZM38.3908 12.3458L38.6983 12.7344L39.1996 12.3378L38.8922 11.9492L38.5847 11.5605L38.0834 11.9571L38.3908 12.3458ZM41.3989 9.9661L41.7064 10.3548L42.2077 9.95814L41.9003 9.56949L41.5928 9.18084L41.0915 9.57745L41.3989 9.9661ZM44.407 7.58644L44.7145 7.97509L45.2158 7.57848L44.9084 7.18983L44.6009 6.80118L44.0996 7.19779L44.407 7.58644ZM45.9111 6.39661L46.2185 6.78526L46.7199 6.38865L46.4124 6L46.1049 5.61135L45.6036 6.00796L45.9111 6.39661ZM42.903 8.77627L43.2104 9.16492L43.7118 8.76831L43.4043 8.37966L43.0969 7.99101L42.5955 8.38762L42.903 8.77627ZM38.779 13.8L38.7726 14.2955L39.4114 14.3038L39.4178 13.8083L39.4242 13.3127L38.7854 13.3045L38.779 13.8ZM44.0184 26.5224L43.8395 26.9846C44.1553 27.1068 44.5074 27.115 44.829 27.0064L44.6704 26.5369L44.5119 26.0674C44.4108 26.1015 44.2975 26.099 44.1972 26.0602L44.0184 26.5224ZM2.40342 13.2712V13.7667C2.64083 13.7667 2.83328 13.9592 2.83328 14.1966H3.32884H3.8244C3.8244 13.4118 3.1882 12.7756 2.40342 12.7756V13.2712ZM4.79168 39.9016L4.95146 39.4325C4.691 39.3438 4.55268 39.0599 4.64336 38.8001L4.17549 38.6368L3.70762 38.4735C3.43557 39.2528 3.85052 40.1046 4.6319 40.3707L4.79168 39.9016ZM6.48973 39.4246L6.01937 39.2686C5.93272 39.5298 5.64978 39.6704 5.38923 39.5817L5.22945 40.0507L5.06968 40.5198C5.85131 40.7861 6.70014 40.3643 6.96009 39.5806L6.48973 39.4246ZM10.357 38.6542V38.1587C10.0921 38.1587 9.87395 37.9502 9.86199 37.6855L9.36694 37.7079L8.87189 37.7302C8.90777 38.5244 9.56207 39.1498 10.357 39.1498V38.6542ZM14.1949 26.4481L14.4467 26.0213C14.2559 25.9087 14.163 25.6831 14.2192 25.4687L13.7398 25.343L13.2605 25.2173C13.0919 25.8603 13.3706 26.5371 13.9431 26.8749L14.1949 26.4481ZM17.1739 28.7693L17.6532 28.895C17.7852 28.3917 17.567 27.8621 17.1189 27.5977L16.8671 28.0245L16.6153 28.4514C16.6817 28.4905 16.7141 28.569 16.6945 28.6436L17.1739 28.7693ZM16.5277 29.2678V29.7634C17.0567 29.7634 17.519 29.4066 17.6532 28.895L17.1739 28.7693L16.6945 28.6436C16.6746 28.7194 16.6061 28.7722 16.5277 28.7722V29.2678ZM13.3391 29.9763L13.8141 30.1176C13.8766 29.9074 14.0698 29.7634 14.2891 29.7634V29.2678V28.7722C13.6313 28.7722 13.0517 29.2045 12.8641 29.835L13.3391 29.9763ZM8.3489 36.2946L8.78035 36.5384C8.86826 36.3828 9.03311 36.2866 9.2118 36.2866V35.791V35.2955C8.67573 35.2955 8.18116 35.5841 7.91745 36.0508L8.3489 36.2946ZM7.43206 20.1296L7.34311 20.6171C7.5786 20.6601 7.74971 20.8652 7.74971 21.1046H8.24527H8.74083C8.74083 20.3865 8.22749 19.771 7.52102 19.6421L7.43206 20.1296ZM5.48763 18.0305V17.535C4.73621 17.535 4.12707 18.1441 4.12707 18.8955H4.62263H5.11819C5.11819 18.6915 5.28359 18.5261 5.48763 18.5261V18.0305ZM5.59298 18.0305V18.5261C6.40258 18.5261 7.05889 17.8698 7.05889 17.0602H6.56333H6.06777C6.06777 17.3224 5.8552 17.535 5.59298 17.535V18.0305ZM7.14655 13.6134V13.1178C6.55076 13.1178 6.06777 13.6008 6.06777 14.1966H6.56333H7.05889C7.05889 14.1482 7.09814 14.1089 7.14655 14.1089V13.6134ZM10.8475 9.17288V8.67732C10.4611 8.67732 10.1234 8.9379 10.0254 9.31159L10.5048 9.43729L10.9841 9.56299C10.9678 9.62512 10.9117 9.66844 10.8475 9.66844V9.17288ZM1 14.2623H1.49556C1.49556 13.9886 1.71743 13.7667 1.99112 13.7667V13.2712V12.7756C1.17005 12.7756 0.504442 13.4412 0.504442 14.2623H1ZM24.3938 28.8957L24.7479 29.2423C25.0198 28.9645 25.1721 28.5912 25.1721 28.2025H24.6765H24.181C24.181 28.3321 24.1302 28.4565 24.0396 28.5491L24.3938 28.8957ZM3.32884 16.775H2.83328C2.83328 17.0487 2.61141 17.2705 2.33772 17.2705V17.7661V18.2617C3.15879 18.2617 3.8244 17.5961 3.8244 16.775H3.32884ZM23.2094 45V44.5044C22.9357 44.5044 22.7139 44.2826 22.7139 44.0089H22.2183H21.7228C21.7228 44.8299 22.3884 45.4956 23.2094 45.4956V45ZM34.5094 28.2025H34.0139C34.0139 28.5912 34.1661 28.9645 34.438 29.2423L34.7922 28.8957L35.1464 28.5491C35.0557 28.4565 35.005 28.3321 35.005 28.2025H34.5094ZM8.21243 11.6847V12.1803C8.64717 12.1803 8.9996 11.8279 8.9996 11.3931H8.50404H8.00849C8.00849 11.2805 8.0998 11.1892 8.21243 11.1892V11.6847ZM24.0296 24.8386H24.5252C24.5252 24.5649 24.7471 24.343 25.0208 24.343V23.8475V23.3519C24.1997 23.3519 23.5341 24.0175 23.5341 24.8386H24.0296ZM6.04582 10.6936H5.55026C5.55026 11.5147 6.21587 12.1803 7.03694 12.1803V11.6847V11.1892C6.76325 11.1892 6.54138 10.9673 6.54138 10.6936H6.04582ZM24.0296 26.109H23.5341C23.5341 26.74 24.0456 27.2515 24.6765 27.2515V26.7559V26.2604C24.593 26.2604 24.5252 26.1926 24.5252 26.109H24.0296ZM7.03694 8.77627V8.28071C6.21587 8.28071 5.55026 8.94632 5.55026 9.76739H6.04582H6.54138C6.54138 9.4937 6.76325 9.27183 7.03694 9.27183V8.77627ZM35.2857 25.9797H34.7901C34.7901 26.1347 34.6645 26.2604 34.5094 26.2604V26.7559V27.2515C35.2118 27.2515 35.7813 26.6821 35.7813 25.9797H35.2857ZM8.50404 9.43729H8.9996C8.9996 8.79853 8.48179 8.28071 7.84303 8.28071V8.77627V9.27183C7.93441 9.27183 8.00849 9.34591 8.00849 9.43729H8.50404ZM34.2946 23.8475V24.343C34.5683 24.343 34.7901 24.5649 34.7901 24.8386H35.2857H35.7813C35.7813 24.0175 35.1157 23.3519 34.2946 23.3519V23.8475ZM11.8449 37.53L11.3538 37.5965C11.3942 37.894 11.1629 38.1587 10.8628 38.1587V38.6542V39.1498C11.7632 39.1498 12.4569 38.3557 12.336 37.4634L11.8449 37.53ZM24.0296 16.2462H23.5341C23.5341 17.0672 24.1997 17.7328 25.0208 17.7328V17.2373V16.7417C24.7471 16.7417 24.5252 16.5199 24.5252 16.2462H24.0296ZM7.99172 36.9268L7.56026 36.683C7.51674 36.76 7.42644 36.7976 7.34111 36.7743L7.21024 37.2522L7.07938 37.7302C7.60262 37.8735 8.1563 37.6429 8.42317 37.1705L7.99172 36.9268ZM33.2595 17.7661V18.2617C34.0806 18.2617 34.7462 17.5961 34.7462 16.775H34.2507H33.7551C33.7551 17.0487 33.5332 17.2705 33.2595 17.2705V17.7661ZM31.4043 20.4045H31.8999C31.8999 19.9879 31.5621 19.6502 31.1455 19.6502V20.1458V20.6413C31.0148 20.6413 30.9087 20.5353 30.9087 20.4045H31.4043ZM23.0385 13.8V14.2956C23.3122 14.2956 23.5341 14.5174 23.5341 14.7911H24.0296H24.5252C24.5252 13.9701 23.8596 13.3044 23.0385 13.3044V13.8ZM36.9676 44.0089H36.4721C36.4721 44.2826 36.2502 44.5044 35.9765 44.5044V45V45.4956C36.7976 45.4956 37.4632 44.8299 37.4632 44.0089H36.9676ZM21.5174 18.3549L21.9948 18.4879C22.0466 18.3017 22.0634 18.1036 22.0402 17.9077L21.5481 17.9661L21.056 18.0245C21.0635 18.0881 21.0583 18.1563 21.04 18.222L21.5174 18.3549ZM4.62263 18.8955H4.12707C4.12707 19.5527 4.59686 20.116 5.2434 20.234L5.33235 19.7465L5.42131 19.2589C5.24575 19.2269 5.11819 19.074 5.11819 18.8955H4.62263ZM28.6471 10.8915V10.396C28.6174 10.396 28.5878 10.3933 28.5587 10.388L28.4703 10.8756L28.3819 11.3632C28.4694 11.3791 28.5581 11.3871 28.6471 11.3871V10.8915ZM36.6849 30.8297L36.3307 31.1763C36.4213 31.2689 36.4721 31.3933 36.4721 31.5229H36.9676H37.4632C37.4632 31.1342 37.3109 30.7609 37.039 30.4831L36.6849 30.8297ZM17.5315 13.8V13.3044C16.8556 13.3044 16.2648 13.7603 16.0934 14.414L16.5728 14.5397L17.0521 14.6654C17.1093 14.4475 17.3062 14.2956 17.5315 14.2956V13.8ZM17.8256 9.35581L17.332 9.31111C17.3236 9.40406 17.3268 9.49149 17.3349 9.56972L17.8278 9.51856L18.3207 9.4674C18.3176 9.43745 18.3177 9.41588 18.3191 9.40051L17.8256 9.35581ZM1.99112 17.7661V17.2705C1.71743 17.2705 1.49556 17.0487 1.49556 16.775H1H0.504442C0.504442 17.5961 1.17005 18.2617 1.99112 18.2617V17.7661ZM22.2183 31.5229H22.7139C22.7139 31.3933 22.7646 31.2689 22.8553 31.1763L22.5011 30.8297L22.1469 30.4831C21.875 30.7609 21.7228 31.1342 21.7228 31.5229H22.2183ZM18.7195 18.2479L19.214 18.2799C19.2194 18.1974 19.218 18.1122 19.2093 18.028L18.7164 18.0792L18.2235 18.1303C18.2263 18.1574 18.2269 18.1869 18.225 18.2159L18.7195 18.2479ZM4.67784 36.262L4.19849 36.1363C4.08936 36.5525 4.33555 36.9789 4.75053 37.0926L4.8814 36.6146L5.01227 36.1366C5.12121 36.1665 5.18584 36.2784 5.15719 36.3877L4.67784 36.262ZM33.2595 10.0983V10.5939C33.5332 10.5939 33.7551 10.8157 33.7551 11.0894H34.2507H34.7462C34.7462 10.2684 34.0806 9.60275 33.2595 9.60275V10.0983ZM28.5579 20.1458V19.6502C28.0699 19.6502 27.6742 20.0459 27.6742 20.5339H28.1698H28.6654C28.6654 20.5932 28.6173 20.6413 28.5579 20.6413V20.1458ZM8.24527 22.5298H7.74971C7.74971 22.5723 7.74427 22.6145 7.73351 22.6555L8.21286 22.7812L8.69221 22.9069C8.72449 22.7838 8.74083 22.6571 8.74083 22.5298H8.24527ZM31.1455 10.8915H31.6411C31.6411 10.7271 31.7744 10.5939 31.9388 10.5939V10.0983V9.60275C31.227 9.60275 30.65 10.1798 30.65 10.8915H31.1455Z"
        fill="currentColor" />
</svg>