<svg viewBox="0 0 50 50" fill="none" xmlns="http://www.w3.org/2000/svg">
    <path
        d="M14.5546 15.208H13.2746C12.4263 15.208 11.7386 14.5203 11.7386 13.672V2.536C11.7386 1.68769 12.4263 1 13.2746 1H37.4885C38.3368 1 39.0245 1.68769 39.0245 2.536V13.672C39.0245 14.5203 38.3368 15.208 37.4885 15.208H36.2085M14.5546 15.208V16.36C14.5546 17.2083 15.2423 17.896 16.0907 17.896H17.2427M14.5546 15.208H36.2085M17.2427 17.896V20.424M17.2427 17.896H33.5205M17.2427 22.952V27.24C17.2427 27.6642 17.5865 28.008 18.0107 28.008M17.2427 22.952V20.424M17.2427 22.952L10.2026 28.397M18.0107 28.008L12.7026 32.1867C12.2464 32.5458 11.6721 32.7441 11.0986 32.6534M18.0107 28.008H22.6186M17.2427 20.424H11.7386C10.8903 20.424 10.2026 21.1117 10.2026 21.96V28.397M10.2026 28.397L10.1016 28.4751C9.43099 28.9938 8.95012 29.77 9.01421 30.6154C9.1069 31.838 9.66689 32.4272 11.0986 32.6534M22.6186 28.008L18.7499 31.6492C18.4415 31.9394 18.2666 32.3442 18.2666 32.7677V45.032C18.2666 45.1734 18.152 45.288 18.0106 45.288H17.1353C16.5048 45.288 15.9384 44.9028 15.7068 44.3165L11.0986 32.6534M22.6186 28.008H28.1445M36.2085 15.208V16.36C36.2085 17.2083 35.5208 17.896 34.6725 17.896H33.5205M33.5205 17.896V20.424M33.5205 22.952V27.24C33.5205 27.6642 33.1767 28.008 32.7525 28.008M33.5205 22.952V20.424M33.5205 22.952L40.5605 28.397M32.7525 28.008L38.0606 32.1867C38.5168 32.5458 39.0911 32.7441 39.6645 32.6534M32.7525 28.008H28.1445M33.5205 20.424H39.0245C39.8728 20.424 40.5605 21.1117 40.5605 21.96V28.397M40.5605 28.397L40.6615 28.4751C41.3322 28.9938 41.813 29.77 41.7489 30.6154C41.6563 31.838 41.0963 32.4272 39.6645 32.6534M28.1445 28.008L32.0132 31.6492C32.3216 31.9394 32.4965 32.3442 32.4965 32.7677V45.032C32.4965 45.1734 32.6111 45.288 32.7525 45.288H33.6279C34.2583 45.288 34.8247 44.9028 35.0564 44.3165L39.6645 32.6534M32.6026 3.68797V12.648M39.4085 30.696H39.3866C39.2453 30.696 39.1306 30.5814 39.1306 30.44C39.1306 30.2986 39.2453 30.184 39.3866 30.184H39.4085C39.5499 30.184 39.6645 30.2986 39.6645 30.44C39.6645 30.5814 39.5499 30.696 39.4085 30.696ZM11.2266 30.44C11.2266 30.2986 11.3412 30.184 11.4826 30.184C11.624 30.184 11.7386 30.2986 11.7386 30.44C11.7386 30.5814 11.624 30.696 11.4826 30.696C11.3412 30.696 11.2266 30.5814 11.2266 30.44ZM19.6746 25.32C19.6746 25.1786 19.7892 25.064 19.9306 25.064C20.072 25.064 20.1866 25.1786 20.1866 25.32C20.1866 25.4614 20.072 25.576 19.9306 25.576C19.7892 25.576 19.6746 25.4614 19.6746 25.32ZM30.6826 25.064C30.824 25.064 30.9386 25.1786 30.9386 25.32C30.9386 25.4614 30.824 25.576 30.6826 25.576C30.5413 25.576 30.4266 25.4614 30.4266 25.32C30.4266 25.1786 30.5413 25.064 30.6826 25.064Z"
        stroke="currentColor" stroke-width="1.024" />
    <path
        d="M29.0187 38.504H21.4667C20.6184 38.504 19.9307 39.1917 19.9307 40.04V47.464C19.9307 48.3123 20.6184 49 21.4667 49H29.0187C29.867 49 30.5547 48.3123 30.5547 47.464V40.04C30.5547 39.1917 29.867 38.504 29.0187 38.504Z"
        fill="currentColor" />
</svg>