<svg viewBox="0 0 50 50" fill="none" xmlns="http://www.w3.org/2000/svg">
    <path
        d="M37.61 8.44015V5.28413C37.61 5.12721 37.4827 5 37.3258 5H12.953C12.7961 5 12.6689 5.12721 12.6689 5.28413V8.44015M37.61 8.44015H12.6689M37.61 8.44015L32.8023 11.2158C32.7592 11.2408 32.7102 11.2539 32.6603 11.2539H30.443M12.6689 8.44015L17.4765 11.2158C17.5197 11.2408 17.5687 11.2539 17.6186 11.2539H19.8359M30.443 11.2539V20.0506M30.443 11.2539H19.8359M30.443 20.0506H19.8359M30.443 20.0506H33.599C33.7559 20.0506 33.8831 20.1779 33.8831 20.3348V23.6341M19.8359 20.0506V11.2539M19.8359 20.0506H16.6799C16.5229 20.0506 16.3957 20.1779 16.3957 20.3348V23.6341M16.3957 23.6341H33.8831M16.3957 23.6341H10.9488M33.8831 23.6341H39.3301M10.9488 23.6341V21.4815C10.9488 21.3246 10.8216 21.1974 10.6647 21.1974H9.65877M10.9488 23.6341H5.21524M5.21524 23.6341H3.06261C2.90568 23.6341 2.77847 23.7613 2.77847 23.9183V26.7901C2.77847 26.9471 2.90569 27.0743 3.06261 27.0743H5.21509M5.21524 23.6341V21.4815C5.21524 21.3246 5.34245 21.1974 5.49938 21.1974H6.5053M6.5053 21.1974V18.758C6.5053 18.6011 6.63251 18.4739 6.78943 18.4739H9.37463C9.53156 18.4739 9.65877 18.6011 9.65877 18.758V21.1974M6.5053 21.1974H9.65877M45.0636 23.6341H47.2163C47.3732 23.6341 47.5004 23.7613 47.5004 23.9183V26.7901C47.5004 26.9471 47.3732 27.0743 47.2163 27.0743H45.0636M45.0636 23.6341V21.4815C45.0636 21.3246 44.9364 21.1974 44.7795 21.1974H43.7736M45.0636 23.6341H39.3301M39.3301 23.6341V21.4815C39.3301 21.3246 39.4573 21.1974 39.6142 21.1974H40.4768M40.4768 21.1974V19.0447C40.4768 18.8878 40.604 18.7606 40.7609 18.7606H43.4894C43.6464 18.7606 43.7736 18.8878 43.7736 19.0447V21.1974M40.4768 21.1974H43.7736M45.0636 27.0743H39.3301M45.0636 27.0743L45.0635 29.2269C45.0635 29.3838 44.9363 29.511 44.7793 29.511H43.6301M39.3301 27.0743L39.3299 29.2269C39.3299 29.3838 39.4571 29.511 39.614 29.511H40.4766M39.3301 27.0743H35.7071M9.51527 29.511H10.6645C10.8215 29.511 10.9487 29.3838 10.9487 29.2269V27.0743M9.51527 29.511H6.36181M9.51527 29.511V35.5313M6.36181 29.511H5.49922C5.3423 29.511 5.21509 29.3838 5.21509 29.2269V27.0743M6.36181 29.511V35.5313M4.92841 38.3981C7.49677 39.54 8.8257 39.5623 11.092 38.3981M4.92841 38.3981V35.8154C4.92841 35.6585 5.05562 35.5313 5.21254 35.5313H6.36181M4.92841 38.3981L2.25553 40.5364C2.14448 40.6252 2.11621 40.7825 2.18938 40.9045L2.49164 41.4082M11.092 38.3981V35.8154C11.092 35.6585 10.9648 35.5313 10.8079 35.5313H9.51527M11.092 38.3981L13.8998 40.5374C14.015 40.6251 14.0458 40.7854 13.9713 40.9096L13.6721 41.4082M9.51527 35.5313V36.1072C9.51527 36.2641 9.38806 36.3913 9.23114 36.3913H6.64594C6.48902 36.3913 6.36181 36.2641 6.36181 36.1072V35.5313M13.6721 41.4082L14.8127 42.6755C14.9004 42.773 14.9124 42.9176 14.8276 43.0176C12.7027 45.527 3.2951 45.91 1.05238 43.0361C0.967324 42.9271 0.989636 42.7737 1.09194 42.6807L2.49164 41.4082M13.6721 41.4082C9.30434 43.0386 6.86557 43.0273 2.49164 41.4082M43.6301 29.511H40.4766M43.6301 29.511V35.5313M40.4766 29.511V35.5313M39.0432 38.3981C41.6116 39.54 42.9405 39.5623 45.2068 38.3981M39.0432 38.3981V35.8154C39.0432 35.6585 39.1704 35.5313 39.3273 35.5313H40.4766M39.0432 38.3981L36.3703 40.5364C36.2593 40.6252 36.231 40.7825 36.3042 40.9045L36.6064 41.4082M45.2068 38.3981V35.8154C45.2068 35.6585 45.0796 35.5313 44.9227 35.5313H43.6301M45.2068 38.3981L48.0146 40.5374C48.1298 40.6251 48.1606 40.7854 48.0861 40.9096L47.7869 41.4082M43.6301 35.5313V36.1072C43.6301 36.2641 43.5029 36.3913 43.3459 36.3913H40.7607C40.6038 36.3913 40.4766 36.2641 40.4766 36.1072V35.5313M47.7869 41.4082L48.9275 42.6755C49.0152 42.773 49.0271 42.9176 48.9424 43.0176C46.8175 45.527 37.4099 45.91 35.1672 43.0361C35.0821 42.9271 35.1044 42.7737 35.2067 42.6807L36.6064 41.4082M47.7869 41.4082C43.4191 43.0386 40.9804 43.0273 36.6064 41.4082M10.9487 27.0743H5.21509M10.9487 27.0743H14.4718M13.5848 32.5946C15.567 33.4803 16.5926 33.4976 18.3416 32.5946M13.5848 32.5946V30.5915C13.5848 30.4697 13.683 30.3711 13.8041 30.3711H14.4718M13.5848 32.5946L11.522 34.2532M18.3416 32.5946V30.5915C18.3416 30.4697 18.2435 30.3711 18.1224 30.3711H17.3441M18.3416 32.5946L20.5086 34.2539C20.5975 34.322 20.6213 34.4463 20.5638 34.5426L20.3329 34.9294M17.3441 30.3711C17.223 30.3711 17.1248 30.4697 17.1248 30.5915V30.8178C17.1248 30.9395 17.0266 31.0381 16.9055 31.0381H14.9104C14.7892 31.0381 14.6911 30.9395 14.6911 30.8178V30.5915C14.6911 30.4697 14.5929 30.3711 14.4718 30.3711M17.3441 30.3711V27.0743M14.4718 30.3711V27.0743M20.3329 34.9294L21.2131 35.9123C21.2808 35.9879 21.29 36.1001 21.2246 36.1777C20.0493 37.5726 15.987 38.1204 13.1425 37.4982M20.3329 34.9294C17.4714 36.0029 15.6827 36.1588 13.1425 35.4132M14.4718 27.0743H17.3441M17.3441 27.0743H32.8348M36.594 32.5946C34.7211 33.4062 33.5359 33.4716 31.8372 32.5946M36.594 32.5946V30.5915C36.594 30.4697 36.4958 30.3711 36.3747 30.3711H35.7071M36.594 32.5946L38.6132 34.0979M31.8372 32.5946V30.5915C31.8372 30.4697 31.9354 30.3711 32.0565 30.3711H32.8348M31.8372 32.5946L29.6702 34.2539C29.5813 34.322 29.5576 34.4463 29.6151 34.5426L29.846 34.9294M32.8348 30.3711C32.9559 30.3711 33.0541 30.4697 33.0541 30.5915V30.8178C33.0541 30.9395 33.1522 31.0381 33.2733 31.0381H35.2685C35.3896 31.0381 35.4878 30.9395 35.4878 30.8178V30.5915C35.4878 30.4697 35.586 30.3711 35.7071 30.3711M32.8348 30.3711V27.0743M35.7071 30.3711V27.0743M29.846 34.9294L28.9657 35.9123C28.898 35.9879 28.8888 36.1001 28.9542 36.1777C30.1296 37.5726 34.1918 38.1204 37.0364 37.4982M29.846 34.9294C32.7075 36.0029 34.4962 36.1588 37.0364 35.4132M35.7071 27.0743H32.8348M24.9959 14.4604H25.2826C26.0742 14.4604 26.716 15.1022 26.716 15.8938C26.716 16.6854 26.0742 17.3272 25.2826 17.3272H24.9959C24.2043 17.3272 23.5625 16.6854 23.5625 15.8938C23.5625 15.1022 24.2043 14.4604 24.9959 14.4604Z"
        stroke="currentColor" stroke-width="1.14672" stroke-linecap="round" />
</svg>