<svg viewBox="0 0 50 50" fill="none" xmlns="http://www.w3.org/2000/svg">
    <path
        d="M32.8937 8.41266L30.705 8.71112C30.4378 8.74756 30.2514 8.99453 30.2895 9.26148L30.3592 9.74937M32.8937 8.41266L39.7303 8.18477C39.9861 8.17625 40.2047 8.36754 40.2301 8.62221L40.3873 10.1939C40.4108 10.4288 40.2622 10.6465 40.035 10.7103L33.5013 12.5443M32.8937 8.41266L33.5013 12.5443M33.5013 12.5443L31.3246 12.9401C31.0534 12.9894 30.7955 12.8035 30.7565 12.5306L30.7064 12.1797M30.7064 12.1797C26.4109 12.6144 24.5643 13.8829 22.4026 18.1342M30.7064 12.1797L30.3592 9.74937M22.4026 18.1342L23.3455 18.7403C23.4667 18.8183 23.5471 18.9459 23.565 19.0889L23.9795 22.4055C24.0054 22.6125 23.896 22.8123 23.7099 22.9066C23.6514 22.9362 23.5937 22.9659 23.5368 22.9956M22.4026 18.1342L20.1342 16.6759M30.3592 9.74937C24.9997 10.247 22.7117 11.7411 20.1342 16.6759M20.1342 16.6759L18.8388 15.8432C18.6142 15.6988 18.3151 15.7626 18.1691 15.9862L14.8599 21.0506M38.4836 5.98228L36.0532 3.43038M35.3241 2.57975L34.4735 1.72911M39.9418 5.61772L39.6988 3.43038M41.5216 6.34684L42.9798 1M42.8583 7.44051L44.3165 6.1038M43.7089 9.02025H46.7469M43.2228 10.6L45.1672 11.4506M43.1013 12.9089L44.8026 14.4886M41.8861 12.9089L43.2228 18.1342M40.1849 13.7595V15.9468M38.8482 13.1519L36.9039 15.5823M36.1747 16.5544L35.4456 17.4051M9.56209 40.2506C11.953 40.8293 12.4651 40.0362 12.0198 36.9129C12.0028 36.794 12.0291 36.6711 12.0954 36.5709L16.5876 29.775C16.6776 29.6389 16.8299 29.557 16.9931 29.557H18.4307C18.6478 29.557 18.8382 29.4128 18.9 29.2047C18.9766 28.9468 19.0536 28.6999 19.1316 28.4633M9.56209 40.2506L8.24345 41.975C8.09435 42.17 7.82327 42.2232 7.61151 42.0991L7.4962 42.0315M9.56209 40.2506L5.795 37.8289M5.795 37.8289L4.87021 37.2344C4.64321 37.0885 4.57854 36.7856 4.72615 36.5597L5.795 34.9239M5.795 37.8289L4.68719 39.8359C4.55982 40.0667 4.63955 40.3569 4.86692 40.4902L5.08018 40.6152M5.08018 40.6152C3.42516 43.6036 2.994 45.4477 3.00006 49M5.08018 40.6152L7.4962 42.0315M7.4962 42.0315C6.17985 44.3699 5.79115 45.8868 5.795 49M19.1316 28.4633L21.1992 29.2996C21.5099 29.4253 21.8513 29.206 21.8746 28.8717C22.0247 26.7234 22.4121 25.3255 23.5368 22.9956M19.1316 28.4633C20.0766 25.5975 21.1734 24.2304 23.5368 22.9956M14.8599 21.0506L15.9032 23.4918C15.9655 23.6374 15.9529 23.8042 15.8695 23.9388L9.21747 34.6754C9.1294 34.8175 8.97446 34.9044 8.80725 34.9054L5.795 34.9239M14.8599 21.0506L5.795 34.9239"
        stroke="currentColor" stroke-width="0.972152" stroke-linecap="round" />
</svg>